<svg width="25" height="24" viewBox="0 0 25 24" fill="none" xmlns="http://www.w3.org/2000/svg">
<circle cx="12.5" cy="12" r="12" fill="#4F4FFF"/>
<path d="M14.9055 15.62C15.0655 15.62 15.1915 15.666 15.2835 15.758C15.3795 15.846 15.4275 15.964 15.4275 16.112V17H9.47553V16.508C9.47553 16.408 9.49553 16.304 9.53553 16.196C9.57953 16.084 9.64753 15.984 9.73953 15.896L12.3735 13.256C12.5935 13.032 12.7895 12.818 12.9615 12.614C13.1375 12.41 13.2835 12.208 13.3995 12.008C13.5155 11.808 13.6035 11.606 13.6635 11.402C13.7275 11.194 13.7595 10.976 13.7595 10.748C13.7595 10.54 13.7295 10.358 13.6695 10.202C13.6095 10.042 13.5235 9.908 13.4115 9.8C13.3035 9.692 13.1715 9.612 13.0155 9.56C12.8635 9.504 12.6915 9.476 12.4995 9.476C12.3235 9.476 12.1595 9.502 12.0075 9.554C11.8595 9.602 11.7275 9.672 11.6115 9.764C11.4955 9.852 11.3975 9.956 11.3175 10.076C11.2375 10.196 11.1775 10.328 11.1375 10.472C11.0695 10.656 10.9815 10.778 10.8735 10.838C10.7655 10.898 10.6095 10.912 10.4055 10.88L9.62553 10.742C9.68553 10.326 9.80153 9.962 9.97353 9.65C10.1455 9.334 10.3595 9.072 10.6155 8.864C10.8755 8.652 11.1715 8.494 11.5035 8.39C11.8395 8.282 12.1995 8.228 12.5835 8.228C12.9835 8.228 13.3495 8.288 13.6815 8.408C14.0135 8.524 14.2975 8.69 14.5335 8.906C14.7695 9.122 14.9535 9.382 15.0855 9.686C15.2175 9.99 15.2835 10.328 15.2835 10.7C15.2835 11.02 15.2355 11.316 15.1395 11.588C15.0475 11.86 14.9215 12.12 14.7615 12.368C14.6055 12.616 14.4215 12.856 14.2095 13.088C13.9975 13.32 13.7755 13.556 13.5435 13.796L11.5875 15.794C11.7755 15.738 11.9615 15.696 12.1455 15.668C12.3335 15.636 12.5115 15.62 12.6795 15.62H14.9055Z" fill="white"/>
</svg>
